<svg xmlns="http://www.w3.org/2000/svg" xmlns:svg="http://www.w3.org/2000/svg" id="svg3039" width="252.96" height="159.943" version="1.1" xml:space="preserve"><metadata id="metadata3045"/><defs id="defs3043"><marker id="Arrow2Mend" orient="auto" refX="0" refY="0" style="overflow:visible"><path id="path4646" d="M 8.7185878,4.0337352 -2.2072895,0.01601326 8.7185884,-4.0017078 c -1.7454984,2.3720609 -1.7354408,5.6174519 -6e-7,8.035443 z" transform="scale(-0.6,-0.6)" style="fill-rule:evenodd;stroke-width:.625;stroke-linejoin:round"/></marker><marker id="Arrow1Send" orient="auto" refX="0" refY="0" style="overflow:visible"><path id="path4634" d="M 0,0 5,-5 -12.5,0 5,5 0,0 z" transform="matrix(-0.2,0,0,-0.2,-1.2,0)" style="fill-rule:evenodd;stroke:#000;stroke-width:1pt"/></marker><marker id="Arrow1Lend" orient="auto" refX="0" refY="0" style="overflow:visible"><path id="path4622" d="M 0,0 5,-5 -12.5,0 5,5 0,0 z" transform="matrix(-0.8,0,0,-0.8,-10,0)" style="fill-rule:evenodd;stroke:#000;stroke-width:1pt"/></marker></defs><g id="g3047" transform="matrix(1.25,0,0,-1.25,-115.51746,805.99258)"><path style="fill:none;stroke:#000;stroke-width:.80000001px;stroke-linecap:butt;stroke-linejoin:miter;stroke-opacity:1" id="path3001" d="m 179.50136,635.98694 c -54.35149,0.85593 -77.46157,-40.65663 -77.46157,-40.65663 0,0 -31.669382,-55.20742 22.25415,-49.64388 53.92352,5.56353 40.65663,47.93202 104.42334,-5.56354 63.76671,-53.49557 74.46582,-0.85593 59.91503,32.52531 -14.55079,33.38123 -3.42372,56.49131 -109.13095,63.33874 z"/><path style="fill:none;stroke:#000;stroke-width:.80000001px;stroke-linecap:butt;stroke-linejoin:miter;stroke-opacity:1" id="path3001-3" d="m 273.8125,523.1875 c -23.47154,2.31016 -39.52268,21.84186 -57.76071,34.53648 -12.34671,8.96427 -27.87386,18.93517 -43.73929,13.46352 -14.83319,-6.17289 -27.56125,-17.86891 -44.2976,-18.89075 -9.10103,-1.46707 -21.92066,-3.01099 -27.67115,5.922 -4.387751,10.87427 1.56646,22.65107 6.21875,32.53125 16.28559,28.84238 51.58957,43.27468 83.78656,38.39792 23.02098,-2.21294 46.81266,-4.24746 67.71344,-14.77292 11.16654,-6.36457 16.70842,-18.59775 19.93946,-30.50084 6.06159,-16.62852 15.25938,-35.09383 7.52929,-52.71791 -2.1993,-4.56573 -6.41329,-8.32198 -11.71875,-7.96875 z"/><path style="fill:none;stroke:#000;stroke-width:.80000001px;stroke-linecap:butt;stroke-linejoin:miter;stroke-opacity:1" id="path3001-3-1" d="m 273.375,529.3125 c -23.49092,3.53665 -38.81799,23.93653 -57.84375,36.21875 -13.45638,9.74169 -31.84328,17.88708 -48.08193,10.02154 -15.49007,-7.83736 -30.44822,-18.72637 -48.51182,-18.33404 -5.42633,-0.62529 -14.31287,0.47315 -13.84375,7.75 -0.15237,14.91973 9.11297,28.26058 19.15625,38.59375 19.57791,18.42242 48.44999,23.93096 74.41996,18.67606 21.05491,-2.37543 43.91279,-4.0997 61.51754,-16.92606 11.42953,-11.81142 13.03894,-29.16076 19.53125,-43.625 3.02989,-10.13576 5.46619,-23.7238 -2.96875,-31.84375 -0.98175,-0.67526 -2.20458,-0.80247 -3.375,-0.53125 z"/><path style="fill:none;stroke:#000;stroke-width:.80000001px;stroke-linecap:butt;stroke-linejoin:miter;stroke-opacity:1" id="path3001-3-1-6" d="m 272.40625,535.4375 c -24.70211,5.48557 -40.02376,28.41234 -61.53125,40.125 -15.39718,9.54599 -36.77502,13.0724 -52.31236,2.01562 -14.29361,-7.7403 -30.35566,-17.54253 -47.21889,-13.76562 -2.16762,4.35184 1.30936,9.58363 2.21875,14.09375 10.77557,27.05888 41.1218,41.89919 69.34288,39.95837 16.13197,-1.19188 32.17761,-3.67384 48.06901,-6.62073 12.8898,-2.79807 27.44012,-8.5066 32.15061,-22.08764 5.33014,-12.43779 9.05155,-25.63581 12.75,-38.59375 0.70451,-5.14058 0.89982,-11.04314 -2.59375,-15.3125 l -0.875,0.1875 z"/><path style="fill:none;stroke:#0000fa;stroke-width:.80000001px;stroke-linecap:butt;stroke-linejoin:miter;stroke-opacity:1" id="path3001-3-1-6-2" d="m 269.34375,542.5625 c -27.14197,9.96056 -43.48399,37.93463 -71.875,45.625 -16.15982,4.85411 -34.17671,1.55254 -47.60881,-8.50301 -10.09414,-5.30005 -20.80472,-11.44187 -32.57869,-10.46574 6.06109,26.35282 33.45882,42.49572 59.18735,42.76724 19.07444,-0.37148 38.05456,-3.70411 56.68765,-7.48599 11.38626,-2.34887 22.76104,-9.10667 25.875,-21.03125 4.70856,-13.13289 10.26157,-26.4443 11.1875,-40.5 -0.0625,-0.41902 -0.10671,-1.25682 -0.875,-0.40625 z"/><path style="fill:none;stroke:#000;stroke-width:1px;stroke-linecap:butt;stroke-linejoin:miter;stroke-opacity:1;marker-end:url(#Arrow2Mend)" id="path3101" d="M 165.03381,119.02991 164.76633,89.072399" transform="matrix(0.8,0,0,-0.8,44.4,707.6)"/><text style="font-size:9.60000038px;font-style:normal;font-weight:400;line-height:125%;letter-spacing:0;word-spacing:0;fill:#000;fill-opacity:1;stroke:none;font-family:Sans" id="text4075" x="173.749" y="-639.544" transform="scale(1,-1)" xml:space="preserve"><tspan id="tspan4077" x="173.749" y="-639.544">x</tspan></text></g></svg>